<svg xmlns="http://www.w3.org/2000/svg" viewBox="0 0 128 128">
  <defs>
    <linearGradient id="heliBody" x1="0" y1="0" x2="0" y2="1">
      <stop offset="0" stop-color="#ffeaa0"/>
      <stop offset="1" stop-color="#d6a23c"/>
    </linearGradient>
    <linearGradient id="heliGlass" x1="0" y1="0" x2="1" y2="1">
      <stop offset="0" stop-color="#ffffff"/>
      <stop offset="0.4" stop-color="#a4e4ff"/>
      <stop offset="1" stop-color="#2d6d96"/>
    </linearGradient>
  </defs>

  
  <ellipse cx="64" cy="94" rx="24" ry="9" fill="#020f19" fill-opacity="0.45"/>

  
  <rect x="26" y="50" width="76" height="30" rx="14"
        fill="url(#heliBody)"
        stroke="#5a4b1d"
        stroke-width="4"/>

  
  <path d="M26 65 Q18 60 16 52 Q30 52 38 60 Q30 64 26 65 Z"
        fill="#d39a34"
        stroke="#5a4b1d"
        stroke-width="3"
        stroke-linejoin="round"/>

  
  <path d="M46 38
           Q64 30 82 38
           L82 60
           Q64 54 46 60 Z"
        fill="url(#heliGlass)"
        stroke="#23465c"
        stroke-width="3"/>

  
  <rect x="80" y="58" width="28" height="10" rx="4"
        fill="#c38a2f"
        stroke="#5a4b1d"
        stroke-width="3"/>

  
  <rect x="100" y="52" width="10" height="22" rx="3" fill="#475a64"/>

  
  <rect x="44" y="80" width="10" height="16" rx="3" fill="#394c59"/>
  <rect x="74" y="80" width="10" height="16" rx="3" fill="#394c59"/>
</svg>

