<svg xmlns="http://www.w3.org/2000/svg" viewBox="0 0 160 128">
  <defs>
    <linearGradient id="warHull" x1="0" y1="0" x2="0" y2="1">
      <stop offset="0" stop-color="#9aa7b5"/>
      <stop offset="1" stop-color="#3a4c5c"/>
    </linearGradient>
    <linearGradient id="warDeck" x1="0" y1="0" x2="1" y2="1">
      <stop offset="0" stop-color="#f0f4f8"/>
      <stop offset="1" stop-color="#c4ccd4"/>
    </linearGradient>
  </defs>

  
  <ellipse cx="80" cy="100" rx="48" ry="14" fill="#020f18" fill-opacity="0.5"/>

  
  <path d="M16 72
           L30 42
           L130 42
           L144 72
           Q112 106 80 110
           Q48 106 16 72 Z"
        fill="url(#warHull)"
        stroke="#1c2a35"
        stroke-width="5"
        stroke-linejoin="round"/>

  
  <path d="M30 62
           L40 48
           L120 48
           L130 62
           Q104 86 80 88
           Q56 86 30 62 Z"
        fill="url(#warDeck)"
        stroke="#b5bfc9"
        stroke-width="2"/>

  
  <rect x="58" y="34" width="44" height="22" rx="4"
        fill="#2c3d4c"/>

  
  <rect x="70" y="24" width="20" height="12" rx="3"
        fill="#8fa7b8"/>

  
  <rect x="76" y="50" width="8" height="22" rx="3"
        fill="#ff6d3e"/>

  
  <rect x="26" y="52" width="108" height="5" rx="2" fill="#9fb5c6"/>
  <rect x="32" y="58" width="96" height="3" rx="1.5" fill="#70879a" opacity="0.85"/>

  
  <rect x="44" y="56" width="10" height="18" rx="2" fill="#2a3440"/>
  <rect x="106" y="56" width="10" height="18" rx="2" fill="#2a3440"/>
  <rect x="48" y="52" width="18" height="4" rx="2" fill="#c6d0d8"/>
  <rect x="94" y="52" width="18" height="4" rx="2" fill="#c6d0d8"/>
</svg>

